REM MD5 c50cc20cfa21ee4467120f0008afbb18
FILE "My Dream - On Air ga Matenakute (Japan) (Disc 1).bin" BINARY
  TRACK 01 MODE2/2352
    INDEX 01 00:00:00
  TRACK 02 AUDIO
    INDEX 00 47:32:32
    INDEX 01 47:34:32
  TRACK 03 AUDIO
    INDEX 00 47:48:29
    INDEX 01 47:50:29
REM LEADOUT 51:01:26
